<?xml version="1.0" standalone="no"?>
<!DOCTYPE svg PUBLIC "-//W3C//DTD SVG 20010904//EN"
 "http://www.w3.org/TR/2001/REC-SVG-20010904/DTD/svg10.dtd">
<svg version="1.0" xmlns="http://www.w3.org/2000/svg"
 width="323.000000pt" height="323.000000pt" viewBox="0 0 323.000000 323.000000"
 preserveAspectRatio="xMidYMid meet">

<g transform="translate(0.000000,323.000000) scale(0.100000,-0.100000)"
fill="#000000" stroke="none">
<path d="M1035 3167 c-3 -6 -4 -201 -3 -432 l3 -420 583 -3 582 -2 0 435 0
435 -580 0 c-455 0 -582 -3 -585 -13z"/>
<path d="M45 1778 c-3 -7 -4 -402 -3 -878 l3 -865 1573 -3 1572 -2 0 880 0
880 -492 -2 -493 -3 -3 -438 -2 -437 -583 2 -582 3 -3 438 -2 437 -490 0
c-383 0 -492 -3 -495 -12z"/>
</g>
</svg>
